<svg width="20" height="20" viewBox="0 0 20 20" fill="none" xmlns="http://www.w3.org/2000/svg">
<path d="M16.25 2.5C14.8687 2.5 13.75 3.61875 13.75 5H12.5V6.25H16.25V5H15C15 4.25563 15.5056 3.75 16.25 3.75C16.9944 3.75 17.5 4.25563 17.5 5V8.75H0.625V10H1.3675L2.32375 14.7463V14.7656C2.39623 15.0843 2.54918 15.3792 2.76801 15.622C2.98684 15.8648 3.26425 16.0474 3.57375 16.1525L3.125 17.5H4.375L4.785 16.25H15.215L15.625 17.5H16.875L16.4256 16.1525C17.08 15.9525 17.5881 15.4275 17.7344 14.7656V14.7463L18.6331 10H19.375V8.75H18.75V5C18.75 3.61875 17.6313 2.5 16.25 2.5ZM2.63687 10H17.3825L16.5037 14.5119C16.4306 14.7825 16.2013 15 15.8787 15H4.18C3.845 15 3.61813 14.7781 3.555 14.4919L2.63687 10Z" fill="#343434"/>
</svg>
