<svg width="24" height="24" viewBox="0 0 24 24" fill="none" xmlns="http://www.w3.org/2000/svg">
<path fill-rule="evenodd" clip-rule="evenodd" d="M12.075 1.5H11.925C9.75 1.5 8.015 1.5 6.655 1.683C5.25 1.872 4.097 2.272 3.185 3.184C2.272 4.097 1.872 5.25 1.683 6.654C1.5 8.015 1.5 9.75 1.5 11.927V12.076C1.5 14.251 1.5 15.986 1.683 17.346C1.872 18.751 2.272 19.905 3.184 20.816C4.097 21.729 5.25 22.129 6.654 22.318C8.014 22.501 9.75 22.501 11.926 22.501H12.074C14.25 22.501 15.985 22.501 17.345 22.318C18.75 22.129 19.904 21.729 20.815 20.817C21.728 19.905 22.128 18.751 22.317 17.347C22.5 15.987 22.5 14.251 22.5 12.075V11.927C22.5 9.751 22.5 8.016 22.317 6.656C22.128 5.251 21.728 4.098 20.816 3.186C19.904 2.274 18.75 1.873 17.346 1.684C15.985 1.5 14.251 1.5 12.075 1.5ZM5.5 7.5C5.5 6.96957 5.71071 6.46086 6.08579 6.08579C6.46086 5.71071 6.96957 5.5 7.5 5.5C8.03043 5.5 8.53914 5.71071 8.91421 6.08579C9.28929 6.46086 9.5 6.96957 9.5 7.5C9.5 8.03043 9.28929 8.53914 8.91421 8.91421C8.53914 9.28929 8.03043 9.5 7.5 9.5C6.96957 9.5 6.46086 9.28929 6.08579 8.91421C5.71071 8.53914 5.5 8.03043 5.5 7.5ZM6.922 20.335C6.80499 20.3193 6.6883 20.3013 6.572 20.281C8.477 17.978 10.418 15.65 12.599 14.188C13.859 13.343 15.155 12.821 16.524 12.757C17.724 12.7 19.039 12.993 20.496 13.813C20.486 15.163 20.451 16.219 20.336 17.079C20.176 18.261 19.881 18.923 19.402 19.402C18.923 19.881 18.262 20.176 17.079 20.335C15.869 20.498 14.269 20.5 12.001 20.5C9.733 20.5 8.134 20.498 6.922 20.335Z" fill="#C4D3D0"/>
</svg>
