<svg width="40" height="40" viewBox="0 0 40 40" fill="none" xmlns="http://www.w3.org/2000/svg">
<path fill-rule="evenodd" clip-rule="evenodd" d="M20.095 2.91699C23.745 2.91699 26.615 2.91699 28.8533 3.21699C31.1483 3.52699 32.9683 4.17199 34.3983 5.60033C35.8283 7.03366 36.4733 8.85199 36.7816 11.147C37.0833 13.3853 37.0833 16.2537 37.0833 19.9053V20.0953C37.0833 23.7453 37.0833 26.6153 36.7833 28.8537C36.4733 31.1487 35.8283 32.9687 34.4 34.3987C32.9666 35.8287 31.1483 36.4737 28.8533 36.782C26.615 37.0837 23.7466 37.0837 20.095 37.0837H19.905C16.255 37.0837 13.385 37.0837 11.1466 36.7837C8.85163 36.4737 7.03163 35.8287 5.60163 34.4003C4.17163 32.967 3.52663 31.1487 3.21829 28.8537C2.91663 26.6153 2.91663 23.747 2.91663 20.0953V19.9053C2.91663 16.2553 2.91663 13.3853 3.21663 11.147C3.52663 8.85199 4.17163 7.03199 5.59996 5.60199C7.03329 4.17199 8.85163 3.52699 11.1466 3.21866C13.385 2.91699 16.2533 2.91699 19.905 2.91699H20.095ZM19.47 17.5453C19.8816 17.602 20.4516 17.7487 20.935 18.232C21.4183 18.7153 21.5666 19.2853 21.6216 19.6987C21.6666 20.0387 21.6666 20.4353 21.6666 20.7687V27.5003C21.6666 27.9424 21.491 28.3663 21.1785 28.6788C20.8659 28.9914 20.442 29.167 20 29.167C19.5579 29.167 19.134 28.9914 18.8214 28.6788C18.5089 28.3663 18.3333 27.9424 18.3333 27.5003V20.8337C17.8913 20.8337 17.4673 20.6581 17.1548 20.3455C16.8422 20.0329 16.6666 19.609 16.6666 19.167C16.6666 18.725 16.8422 18.301 17.1548 17.9885C17.4673 17.6759 17.8913 17.5003 18.3333 17.5003H18.4C18.7333 17.5003 19.1283 17.5003 19.47 17.5453ZM19.9916 10.8337C19.551 10.8359 19.1293 11.0124 18.8185 11.3247C18.5077 11.6371 18.3333 12.0597 18.3333 12.5003C18.3333 13.4203 19.0766 14.167 19.9916 14.167H20.0083C20.925 14.167 21.6666 13.4203 21.6666 12.5003C21.6666 11.5803 20.9233 10.8337 20.0066 10.8337H19.9916Z" fill="#4152b7"/>
</svg>
