<svg width="20" height="20" viewBox="0 0 20 20" fill="none" xmlns="http://www.w3.org/2000/svg">
<path d="M5.33331 3.96664C6.57524 2.74955 8.24731 2.07175 9.98617 2.08053C11.725 2.08931 13.3902 2.78397 14.6197 4.01354C15.8493 5.24311 16.544 6.90825 16.5528 8.64711C16.5615 10.386 15.8837 12.058 14.6666 13.3L11.1783 16.7883C10.8658 17.1008 10.4419 17.2763 9.99998 17.2763C9.55804 17.2763 9.13419 17.1008 8.82164 16.7883L5.33331 13.3C4.09571 12.0622 3.40045 10.3836 3.40045 8.6333C3.40045 6.88299 4.09571 5.20436 5.33331 3.96664Z" stroke="#575757" stroke-width="1.5" stroke-linejoin="round"/>
<path d="M10 11.1333C11.3807 11.1333 12.5 10.014 12.5 8.6333C12.5 7.25259 11.3807 6.1333 10 6.1333C8.61929 6.1333 7.5 7.25259 7.5 8.6333C7.5 10.014 8.61929 11.1333 10 11.1333Z" stroke="#575757" stroke-width="1.5" stroke-linecap="round" stroke-linejoin="round"/>
</svg>
