<svg width="20" height="20" viewBox="0 0 20 20" fill="none" xmlns="http://www.w3.org/2000/svg">
<path fill-rule="evenodd" clip-rule="evenodd" d="M12.6513 2.92874C12.7674 2.81252 12.9052 2.72032 13.057 2.65742C13.2087 2.59451 13.3714 2.56213 13.5356 2.56213C13.6999 2.56213 13.8626 2.59451 14.0143 2.65742C14.1661 2.72032 14.3039 2.81252 14.42 2.92874L17.07 5.57999C17.1862 5.69608 17.2784 5.83394 17.3413 5.98569C17.4043 6.13744 17.4366 6.3001 17.4366 6.46437C17.4366 6.62864 17.4043 6.7913 17.3413 6.94304C17.2784 7.09479 17.1862 7.23265 17.07 7.34874L7.35002 17.0712C7.11561 17.3056 6.79773 17.4372 6.46627 17.4372C6.13482 17.4372 5.81693 17.3056 5.58252 17.0712L2.93002 14.42C2.8138 14.3039 2.7216 14.166 2.6587 14.0143C2.59579 13.8625 2.56342 13.6999 2.56342 13.5356C2.56342 13.3713 2.59579 13.2087 2.6587 13.0569C2.7216 12.9052 2.8138 12.7673 2.93002 12.6512L12.6513 2.92874ZM5.42002 11.9287L3.81252 13.535L6.46502 16.1875L16.1875 6.46499L13.5363 3.81249L11.9288 5.41999L13.3838 6.87499L12.5 7.75874L11.045 6.30374L10.0538 7.29499L11.5088 8.74999L10.625 9.63374L9.17002 8.17874L8.17877 9.16999L9.63377 10.625L8.75002 11.5087L7.29502 10.0537L6.30377 11.045L7.75877 12.5L6.87502 13.3837L5.42002 11.9287Z" fill="#343434"/>
</svg>
